<svg width="85" height="85" fill="none" xmlns="http://www.w3.org/2000/svg"><circle cx="42.5" cy="42.5" r="42" stroke="#fff"/><path d="M41.144 19.042A3.534 3.534 0 0038.63 18a3.53 3.53 0 00-2.003.616A3.531 3.531 0 0034.624 18c-.95 0-1.844.37-2.516 1.042a3.534 3.534 0 00-1.042 2.515c0 .95.37 1.844 1.042 2.516l4.006 4.005a.723.723 0 001.025 0l4.005-4.005a3.562 3.562 0 000-5.031zm-1.026 4.005l-3.492 3.493-3.492-3.493a2.093 2.093 0 01-.617-1.49c0-.562.219-1.091.617-1.49a2.093 2.093 0 011.49-.617c.562 0 1.091.22 1.49.618a.725.725 0 001.025 0 2.093 2.093 0 011.49-.618 2.11 2.11 0 011.49 3.597zm7.726 3.868a2.126 2.126 0 00-1.514-.627 2.13 2.13 0 00-1.002.247 2.132 2.132 0 00-1.001-.247c-.572 0-1.11.222-1.514.627a2.127 2.127 0 00-.627 1.514c0 .572.222 1.11.627 1.514l2.003 2.003a.726.726 0 001.026 0l2.002-2.003a2.144 2.144 0 000-3.028zm-1.026 2.003l-1.49 1.49-1.49-1.49a.686.686 0 01-.202-.49c0-.184.072-.357.203-.488a.687.687 0 01.977 0 .726.726 0 001.026 0 .686.686 0 01.976 0 .69.69 0 010 .977z" fill="#fff"/><path d="M59.594 29.68c-.18 0-4.428.026-6.666 2.263l-4.495 4.496-21.482-5.37-.015-.002a.757.757 0 00-.252-.012l-.032.004a.709.709 0 00-.04.009l-.026.006a.65.65 0 00-.045.014l-.02.007a.763.763 0 00-.108.051l-.018.01a.762.762 0 00-.039.027l-.021.015a.778.778 0 00-.058.05l-.014.012-2.051 2.051c-.004.004-.006.008-.01.01a.76.76 0 00-.05.06l-.01.012-.01.014a.8.8 0 00-.097.195.634.634 0 00-.033.17.757.757 0 00.023.241.704.704 0 00.104.223.882.882 0 00.071.088l.012.013.011.01a.963.963 0 00.059.05l.011.01L39.342 45.53l-7.293 7.292-3.676-1.226-.022-.006-.04-.011-.037-.007a.603.603 0 00-.073-.01l-.029-.002h-.07a.67.67 0 00-.111.016l-.029.006a.762.762 0 00-.04.012l-.027.01a.785.785 0 00-.043.017l-.022.01a.777.777 0 00-.047.025l-.013.007-.01.005-.003.002-3.399 2.04a.086.086 0 00-.005.003h-.001l-.006.004a.693.693 0 00-.054.037l-.016.013c-.013.01-.026.02-.038.032a.175.175 0 00-.024.023l-.026.026-.03.037-.015.018a.67.67 0 00-.036.054l-.004.005a.729.729 0 00-.08.19l-.002.008a.749.749 0 00-.01.054l-.003.015a.34.34 0 00-.005.046L24 54.3v.07l.002.023a.39.39 0 00.005.048l.002.013a.681.681 0 00.011.056l.001.003c.009.033.02.066.034.1l.012.029.004.007.03.057.001.002.003.003a.71.71 0 00.046.068l.016.018a.705.705 0 00.044.048l.017.018c.02.018.04.036.063.053l.021.014a.33.33 0 00.039.026l6.04 3.625-.71.71a.725.725 0 101.025 1.026l.711-.71 3.62 6.033.004.006.002.003c.015.024.03.047.049.07l.014.017a.7.7 0 00.045.05l.016.016c.02.019.04.037.063.053l.02.014.04.027.01.004c.017.01.035.02.054.028l.034.016a.405.405 0 00.049.017l.042.014c.014.004.029.006.043.009.016.003.033.007.05.009l.059.004.032.002h.001l.032-.002.06-.004c.016-.002.033-.006.05-.01.013-.002.028-.004.042-.008l.043-.014a.459.459 0 00.048-.017l.035-.016a.653.653 0 00.053-.028l.01-.004.04-.028.02-.013a.697.697 0 00.063-.054l.016-.015a.772.772 0 00.045-.05l.014-.017a.722.722 0 00.049-.07l.001-.002.001-.002.003-.005 2.047-3.412.012-.023.019-.034a.656.656 0 00.015-.034l.012-.03a.636.636 0 00.012-.038l.01-.03.008-.038c.002-.01.005-.02.006-.031a.882.882 0 00.003-.213l-.006-.033-.007-.036a.625.625 0 00-.01-.037l-.008-.025-1.226-3.677 20.876-20.876.003-.003c2.238-2.237 2.263-6.486 2.263-6.665a.725.725 0 00-.725-.726zm-33.761 4.061l1.165-1.165 20.238 5.06-6.857 6.857L25.833 33.74zm31.2 2.302l-.002.002-21.196 21.196-.007.008-.029.031-.02.024-.02.029a.665.665 0 00-.023.031l-.013.023a.766.766 0 00-.022.04l-.01.02a.801.801 0 00-.019.043l-.008.023-.014.042-.007.03-.009.037-.005.039-.004.029a.787.787 0 00-.002.043v.027l.001.041.002.03a.71.71 0 00.006.035.22.22 0 00.006.037l.007.029a.715.715 0 00.012.043l.002.009 1.263 3.785-1.258 2.097-3.19-5.316 3.019-3.018a.725.725 0 10-1.025-1.026l-3.019 3.019-5.315-3.19 2.096-1.257 3.786 1.262a.718.718 0 00.105.026l.025.003c.03.005.06.007.09.008h.02a.729.729 0 00.205-.033l.018-.006a.723.723 0 00.08-.033l.015-.007a.723.723 0 00.083-.05l.02-.015a.726.726 0 00.06-.05c.006-.005.013-.01.018-.016l.003-.002 21.196-21.196c1.311-1.311 3.662-1.687 4.873-1.795-.106 1.209-.48 3.553-1.794 4.869z" fill="#fff"/><path d="M58.949 63.173a.705.705 0 00-.017-.11l-.003-.015-4.648-18.598a.725.725 0 00-1.407.352l4.549 18.2-1.165 1.164-9.38-12.69a.725.725 0 00-1.166.863l9.88 13.367.008.01a.758.758 0 00.036.042l.02.022.007.007.032.03.02.018a.837.837 0 00.063.046l.019.011.05.029.024.011a.695.695 0 00.05.02l.025.01.05.014.026.007a.826.826 0 00.054.01l.023.002a.63.63 0 00.075.005h.004a.722.722 0 00.097-.008l.023-.003a.72.72 0 00.094-.023l.018-.006c.03-.01.06-.023.09-.037l.008-.004a.706.706 0 00.09-.056l.008-.005.012-.01a.65.65 0 00.059-.05l.011-.01 2.051-2.051.012-.013a.724.724 0 00.152-.242l.01-.029a.705.705 0 00.012-.036l.008-.034.007-.033a.706.706 0 00.01-.108v-.031a.795.795 0 00-.002-.038z" fill="#fff"/></svg>