<svg width="85" height="85" fill="none" xmlns="http://www.w3.org/2000/svg"><circle cx="42.5" cy="42.5" r="42" stroke="#fff"/><path d="M46.58 49.18a8.994 8.994 0 108.994-8.993 9.004 9.004 0 00-8.994 8.993zm8.994-7.195a7.195 7.195 0 11-7.195 7.195 7.203 7.203 0 017.195-7.195zm-5.139 25.183h10.279v1.799h-10.28v-1.799zM46.58 63.57h17.988v1.8H46.58v-1.8zm-19.786 0h1.798v1.8h-1.798v-1.8zm-5.396 1.8h1.798v1.798h-1.799V65.37z" fill="#fff"/><path d="M26.883 58.51a68.116 68.116 0 008.653-26.622l8.365 8.315a.898.898 0 001.434-.236 8.78 8.78 0 00-1.648-10.148l-.735-.735h6.326a.899.899 0 00.854-1.185 8.781 8.781 0 00-8.341-6.01h-1.17l4.492-4.518a.9.9 0 00-.236-1.44 8.783 8.783 0 00-10.153 1.648l-.858.859a8.8 8.8 0 00-.78.899 8.636 8.636 0 00-.773-.9l-.859-.858a8.78 8.78 0 00-10.147-1.647.9.9 0 00-.235 1.439l4.497 4.518h-1.181a8.781 8.781 0 00-8.341 6.01.9.9 0 00.853 1.184h6.32l-.735.736a8.78 8.78 0 00-1.648 10.148.899.899 0 001.439.236l7.789-7.743a48.747 48.747 0 01-9.404 23.769 33.53 33.53 0 00-3.67-.748l-.563-.057-.18 1.79.525.052c.9.129 1.793.31 2.682.516-.18.226-.36.455-.546.677l1.38 1.154a50.636 50.636 0 0011.765-29.132l1.035-1.029.775.771A65.76 65.76 0 0122.46 62.151l1.474 1.031a60.636 60.636 0 002.035-3.124 31.9 31.9 0 0110.882 8.526l1.392-1.14a33.588 33.588 0 00-5.973-5.672h37.695v-1.8h-40.36a33.113 33.113 0 00-2.72-1.462zM44.2 37.962l-9.503-9.448a6.938 6.938 0 016.866 1.718l.86.86a6.983 6.983 0 011.777 6.87zm3.706-10.677h-7.447a8.77 8.77 0 00-5.571-.665 6.975 6.975 0 015.685-2.933h1.214a6.983 6.983 0 016.119 3.598zm-12.772-7.576l.86-.858a6.988 6.988 0 016.874-1.779l-5.331 5.363a8.771 8.771 0 00-4.246 3.333 6.807 6.807 0 011.846-6.059h-.003zm-4.954-.858l.859.858c.4.41.748.867 1.034 1.363a8.554 8.554 0 00-.687 2.99 8.774 8.774 0 00-2.743-1.627l-5.333-5.363a6.985 6.985 0 016.872 1.779h-.002zm-5.795 4.836h1.214a6.977 6.977 0 015.691 2.932 8.774 8.774 0 00-5.568.666h-7.45a6.984 6.984 0 016.116-3.598h-.003zm-2.407 14.275a6.983 6.983 0 011.778-6.87l.86-.86a6.874 6.874 0 014.876-2.007c.674 0 1.345.096 1.993.286l-9.507 9.451z" fill="#fff"/></svg>