<svg width="85" height="85" fill="none" xmlns="http://www.w3.org/2000/svg"><circle cx="42.5" cy="42.5" r="42" stroke="#fff"/><path d="M61.523 39.908H49.465c.546-1.254.778-2.67.719-4.065 1.485.082 2.846-1.011 2.846-2.575a2.56 2.56 0 00-.453-1.455c.466-.31.774-.837.774-1.437v-1.232c0-.95-.773-1.724-1.724-1.724h-1.443v-4.353A5.073 5.073 0 0045.117 18h-7.132a5.073 5.073 0 00-5.068 5.067v4.353h-1.443c-.95 0-1.724.773-1.724 1.724v1.232c0 .6.308 1.128.774 1.437a2.56 2.56 0 00-.453 1.455c0 1.501 1.33 2.723 2.846 2.575-.132 1.32.218 2.903.723 4.065H21.578A2.581 2.581 0 0019 42.486v6.902a2.581 2.581 0 002.578 2.579h2.774a6.342 6.342 0 00-.144.775 1.686 1.686 0 00-.967.267 1.628 1.628 0 00-.754 1.373v2.15h-.933c-.634 0-1.193.451-1.328 1.071a13.872 13.872 0 000 5.92c.135.62.694 1.07 1.328 1.07h.933v.704a.703.703 0 001.406 0v-.703h.4c1.29 0 2.34-1.05 2.34-2.341v-3.379a2.344 2.344 0 00-2.34-2.341h-.4v-2.151c.01-.186.18-.293.382-.209l7.393 3.363v7.76a.703.703 0 001.406 0v-7.76l7.774-3.537v11.298a.703.703 0 001.406 0V53.999c.173.086 7.588 3.447 7.774 3.537v7.76a.703.703 0 001.406 0v-7.76l7.393-3.363c.206-.083.372.023.382.209v2.15h-.4a2.344 2.344 0 00-2.341 2.342v3.379a2.344 2.344 0 002.341 2.34h.4v.704a.703.703 0 001.406 0v-.703h.932a1.37 1.37 0 001.329-1.07 13.88 13.88 0 000-5.92 1.369 1.369 0 00-1.329-1.071h-.932v-2.151c0-.555-.282-1.068-.755-1.372a1.685 1.685 0 00-.966-.268 6.34 6.34 0 00-.145-.775h2.774a2.581 2.581 0 002.578-2.579v-6.901a2.581 2.581 0 00-2.578-2.579zM22.87 50.56h-1.292a1.173 1.173 0 01-1.172-1.172v-6.901c0-.647.526-1.172 1.172-1.172h1.292v9.245zm1.422 7.38c.516 0 .935.419.935.934v3.379c0 .515-.42.935-.935.935h-2.7a12.468 12.468 0 010-5.249h2.7zm37.218 0a12.459 12.459 0 010 5.248h-2.7a.936.936 0 01-.936-.936v-3.378c0-.516.42-.935.935-.935h2.7zm-5.497-16.625v6.857a6.331 6.331 0 00-2.041-.846l-6.907-1.517a1.178 1.178 0 01-.92-1.145v-.9a8.7 8.7 0 002.541-2.45h7.327zm-5.829-6.878V32.1c.722-.11 1.44.411 1.44 1.168 0 .743-.71 1.284-1.44 1.169zm-15.86-11.37a3.665 3.665 0 013.66-3.66h7.133a3.665 3.665 0 013.66 3.66v4.353H34.325v-4.353zm-1.407 11.37c-.739.09-1.44-.393-1.44-1.169 0-.754.721-1.276 1.44-1.168v2.337zm-1.443-3.744a.317.317 0 01-.317-.317v-1.232c0-.175.142-.317.317-.317h20.153c.175 0 .318.142.318.317v1.232a.318.318 0 01-.318.317H39.834a.703.703 0 000 1.407h8.944v4.353a7.184 7.184 0 01-2.116 5.11c-.469.468-.99.862-1.552 1.18a7.078 7.078 0 01-3.56.937c-3.984 0-7.227-3.242-7.227-7.227V32.1h2.23a.703.703 0 100-1.407h-5.08zm13.684 15.37l-3.607 3.608-3.607-3.607c.3-.46.444-1.023.42-1.588.986.394 2.061.61 3.187.61 1.11 0 2.186-.21 3.187-.607-.048.546.132 1.143.42 1.585zm-18.07-4.748h7.332a8.703 8.703 0 002.537 2.444v.905c0 .547-.387 1.028-.92 1.145l-6.907 1.517a6.34 6.34 0 00-2.041.846v-6.857zm-2.197 9.245h-.615v-9.245h1.407v8.077a6.26 6.26 0 00-.792 1.168zm7.48 5.75l-6.795-3.09c.13-2.173 1.71-4.048 3.856-4.52l4.248-.934 5.464 5.463-6.774 3.082zm18.36 0l-6.773-3.08 1.328-1.329a.703.703 0 10-.994-.994l-1.703 1.702a2.681 2.681 0 00-2.077 0l-5.201-5.201 1.027-.226c.191-.042.373-.107.546-.189l4.037 4.037a.885.885 0 00.63.26.884.884 0 00.63-.26l4.036-4.037c.172.082.354.147.546.19l1.027.225-1.156 1.156a.703.703 0 10.994.995l1.793-1.793 4.248.934a4.954 4.954 0 013.856 4.52l-6.794 3.09zm8.094-5.75h-.614a6.272 6.272 0 00-.792-1.168v-8.077h1.406v9.245zm3.87-1.172c0 .647-.526 1.172-1.172 1.172h-1.292v-9.245h1.292c.646 0 1.172.525 1.172 1.172v6.901zM45.377 35.935a.703.703 0 00.703-.703v-1.53a.703.703 0 00-1.406 0v1.53c0 .388.314.703.703.703zm-8.356-2.233v1.53a.703.703 0 001.407 0v-1.53a.703.703 0 00-1.407 0zm2.661 6.63a3.91 3.91 0 001.828.479 4.015 4.015 0 001.91-.48.703.703 0 10-.677-1.232 2.49 2.49 0 01-1.218.306 2.49 2.49 0 01-1.167-.306.703.703 0 10-.676 1.233z" fill="#fff"/></svg>