<svg width="85" height="85" fill="none" xmlns="http://www.w3.org/2000/svg"><circle cx="42.5" cy="42.5" r="42" stroke="#fff"/><path d="M63.675 56.335h-4.36a.649.649 0 110-1.297h4.36a.435.435 0 00.434-.435v-2.05a5.305 5.305 0 00-5.3-5.3H21.3v6.597a1.188 1.188 0 001.186 1.188h2.757a.648.648 0 110 1.297h-2.757a2.487 2.487 0 01-2.484-2.485v-7.245a.648.648 0 01.649-.649h38.16a6.604 6.604 0 016.596 6.597v2.05a1.734 1.734 0 01-1.731 1.732z" fill="#fff"/><path d="M51.35 56.335H33.402a.649.649 0 110-1.297H51.35a.648.648 0 110 1.297zm-30.7-9.078a.659.659 0 01-.373-.117.649.649 0 01-.262-.672 14.459 14.459 0 015.428-8.044 5.087 5.087 0 012.906-.898h16.38a6.411 6.411 0 014.697 2.056l6.078 6.585a.65.65 0 11-.952.88l-6.075-6.583a5.112 5.112 0 00-3.745-1.64H28.35a3.795 3.795 0 00-2.169.672c-3.837 2.648-4.887 7.207-4.896 7.253a.649.649 0 01-.634.508z" fill="#fff"/><path d="M40.758 47.257a.649.649 0 01-.64-.55l-1.297-8.432a.65.65 0 111.281-.195l1.298 8.432a.649.649 0 01-.642.745zm-12.324 0a.649.649 0 01-.62-.84l2.594-8.432a.65.65 0 011.034-.309.649.649 0 01.206.69L29.054 46.8a.649.649 0 01-.62.458zm26.905 13.255a4.635 4.635 0 11-.002-9.27 4.635 4.635 0 01.002 9.27zm0-7.974a3.339 3.339 0 10-.001 6.68 3.339 3.339 0 000-6.681v.001z" fill="#fff"/><path d="M55.339 58.054a2.18 2.18 0 11-.001-4.359 2.18 2.18 0 010 4.36zm0-3.06a.882.882 0 10-.001 1.764.882.882 0 000-1.765zm-26.016 3.06a2.179 2.179 0 110-4.358 2.179 2.179 0 010 4.358zm0-3.06a.883.883 0 100 1.765.883.883 0 000-1.766z" fill="#fff"/><path d="M29.323 60.608a4.735 4.735 0 110-9.47 4.735 4.735 0 010 9.47zm0-8.169a3.439 3.439 0 100 6.877 3.439 3.439 0 000-6.877zM45.947 50.5H44.65a.648.648 0 110-1.297h1.297a.648.648 0 110 1.297zm-7.459 0H37.19a.648.648 0 110-1.297h1.298a.648.648 0 110 1.297zm2.054-11.675h-8.027a.648.648 0 01-.649-.649v-2.595a.65.65 0 01.649-.648h8.027a.65.65 0 01.649.648v2.595a.649.649 0 01-.649.649zm-7.378-1.298h6.73V36.23h-6.73v1.297z" fill="#fff"/><path d="M46.365 36.23H26.691a.649.649 0 110-1.297h19.674a.649.649 0 010 1.297z" fill="#fff"/><path d="M44.78 36.227H33.025a.649.649 0 010-1.297H44.13v-8.25a.381.381 0 00-.382-.382h-9.694a.382.382 0 00-.382.382v2.374a.648.648 0 11-1.297 0V26.68a1.68 1.68 0 011.68-1.68h9.693a1.68 1.68 0 011.68 1.679v8.9a.649.649 0 01-.648.648z" fill="#fff"/><path d="M38.901 36.23H28.688a.648.648 0 01-.648-.649v-5.5a1.682 1.682 0 011.68-1.68h8.15a1.682 1.682 0 011.68 1.68v5.5a.649.649 0 01-.649.649zm-9.564-1.297h8.916V30.08a.383.383 0 00-.383-.382h-8.15a.383.383 0 00-.383.382v4.852z" fill="#fff"/></svg>