<svg width="85" height="85" fill="none" xmlns="http://www.w3.org/2000/svg"><circle cx="42.5" cy="42.5" r="42" stroke="#fff"/><path d="M62 63.5V35a.75.75 0 00-.568-.728L47 30.664V26.75a.75.75 0 00-.557-.725l-22.5-6a.75.75 0 00-.943.725V63.5h-3V65h45v-1.5h-3zM24.5 21.725l21 5.6V63.5h-3.75v-8.25a.75.75 0 00-.75-.75H29a.75.75 0 00-.75.75v8.25H24.5V21.725zM29.75 56h4.5v7.5h-4.5V56zm6 7.5V56h4.5v7.5h-4.5zm15.75 0v-6H56v6h-4.5zm6 0v-6.75a.75.75 0 00-.75-.75h-6a.75.75 0 00-.75.75v6.75h-3V32.21l13.5 3.376V63.5h-3z" fill="#fff"/><path d="M29.75 51.5h3a.75.75 0 00.75-.75v-3a.75.75 0 00-.75-.75h-3a.75.75 0 00-.75.75v3c0 .415.336.75.75.75zm.75-3H32V50h-1.5v-1.5zm6.75 3h3a.75.75 0 00.75-.75v-3a.75.75 0 00-.75-.75h-3a.75.75 0 00-.75.75v3c0 .415.336.75.75.75zm.75-3h1.5V50H38v-1.5zm14.25 0h-3a.75.75 0 00-.75.75v3c0 .415.336.75.75.75h3a.75.75 0 00.75-.75v-3a.75.75 0 00-.75-.75zm-.75 3H50V50h1.5v1.5zm6.75-3h-3a.75.75 0 00-.75.75v3c0 .415.336.75.75.75h3a.75.75 0 00.75-.75v-3a.75.75 0 00-.75-.75zm-.75 3H56V50h1.5v1.5zm-5.25-9h-3a.75.75 0 00-.75.75v3c0 .415.336.75.75.75h3a.75.75 0 00.75-.75v-3a.75.75 0 00-.75-.75zm-.75 3H50V44h1.5v1.5zm6.75-3h-3a.75.75 0 00-.75.75v3c0 .415.336.75.75.75h3a.75.75 0 00.75-.75v-3a.75.75 0 00-.75-.75zm-.75 3H56V44h1.5v1.5zm-5.25-9h-3a.75.75 0 00-.75.75v3c0 .415.336.75.75.75h3a.75.75 0 00.75-.75v-3a.75.75 0 00-.75-.75zm-.75 3H50V38h1.5v1.5zm6.75-3h-3a.75.75 0 00-.75.75v3c0 .415.336.75.75.75h3a.75.75 0 00.75-.75v-3a.75.75 0 00-.75-.75zm-.75 3H56V38h1.5v1.5zm-27.75 6h3a.75.75 0 00.75-.75v-3a.75.75 0 00-.75-.75h-3a.75.75 0 00-.75.75v3c0 .415.336.75.75.75zm.75-3H32V44h-1.5v-1.5zm6.75 3h3a.75.75 0 00.75-.75v-3a.75.75 0 00-.75-.75h-3a.75.75 0 00-.75.75v3c0 .415.336.75.75.75zm.75-3h1.5V44H38v-1.5zm-8.25-3h3a.75.75 0 00.75-.75v-3a.75.75 0 00-.75-.75h-3a.75.75 0 00-.75.75v3c0 .415.336.75.75.75zm.75-3H32V38h-1.5v-1.5zm6.75 3h3a.75.75 0 00.75-.75v-3a.75.75 0 00-.75-.75h-3a.75.75 0 00-.75.75v3c0 .415.336.75.75.75zm.75-3h1.5V38H38v-1.5zm-8.25-3h3a.75.75 0 00.75-.75v-3a.75.75 0 00-.75-.75h-3a.75.75 0 00-.75.75v3c0 .415.336.75.75.75zm.75-3H32V32h-1.5v-1.5zm6.75 3h3a.75.75 0 00.75-.75v-3a.75.75 0 00-.75-.75h-3a.75.75 0 00-.75.75v3c0 .415.336.75.75.75zm.75-3h1.5V32H38v-1.5z" fill="#fff"/></svg>