<svg width="285" height="60" fill="none" xmlns="http://www.w3.org/2000/svg"><path d="M85.8 19.8h.82c.053.213.1.473.14.78.053.293.093.613.12.96.04.333.067.667.08 1 .013.333.02.633.02.9-.467.293-1.053.5-1.76.62-.693.12-1.407.18-2.14.18-1.107 0-2.113-.133-3.02-.4-.893-.28-1.66-.713-2.3-1.3-.627-.6-1.113-1.353-1.46-2.26-.347-.92-.52-2.02-.52-3.3 0-1.267.187-2.353.56-3.26.387-.92.9-1.673 1.54-2.26a5.875 5.875 0 012.22-1.28 8.54 8.54 0 012.68-.42c.88 0 1.673.067 2.38.2.72.12 1.307.287 1.76.5 0 .213-.013.487-.04.82-.013.333-.047.687-.1 1.06-.04.36-.093.72-.16 1.08-.053.347-.107.64-.16.88h-.84l-1.1-3.02c-.12-.067-.313-.12-.58-.16-.267-.04-.54-.06-.82-.06a3.56 3.56 0 00-1.54.34c-.48.213-.907.56-1.28 1.04s-.667 1.1-.88 1.86c-.213.747-.32 1.647-.32 2.7 0 1.907.38 3.373 1.14 4.4.76 1.027 1.793 1.54 3.1 1.54.373 0 .687-.027.94-.08.267-.067.447-.153.54-.26l.98-2.8zm11.647 1.3v.76c.013.213.033.44.06.68l1.38.2v.7c-.16.08-.38.16-.66.24-.267.08-.553.16-.86.24-.294.067-.587.12-.88.16a13.2 13.2 0 01-.78.12h-.68a2.934 2.934 0 01-.24-.92c-.027-.307-.047-.68-.06-1.12h-.1c-.067.267-.18.527-.34.78a2.881 2.881 0 01-1.48 1.12 3.29 3.29 0 01-1.12.18 3.61 3.61 0 01-1.22-.2 3.08 3.08 0 01-.98-.56c-.28-.24-.5-.527-.66-.86a2.736 2.736 0 01-.24-1.16c0-.6.113-1.093.34-1.48.226-.387.58-.7 1.06-.94.493-.253 1.12-.44 1.88-.56.773-.12 1.706-.207 2.8-.26.106-1.147.06-1.987-.14-2.52-.2-.533-.633-.8-1.3-.8a3.15 3.15 0 00-1.14.2l-.94 2.4h-.88a6.406 6.406 0 01-.32-.54 32.168 32.168 0 01-.28-.66c-.08-.24-.154-.48-.22-.72a6.96 6.96 0 01-.12-.7c.507-.347 1.16-.62 1.96-.82.8-.2 1.646-.3 2.54-.3.76 0 1.38.087 1.86.26.48.16.853.387 1.12.68.28.28.473.613.58 1 .106.387.16.8.16 1.24 0 .8-.02 1.527-.06 2.18-.027.64-.04 1.3-.04 1.98zm-4.5 1.54c.28 0 .52-.053.72-.16.2-.107.367-.233.5-.38a1.38 1.38 0 00.32-.48c.08-.173.14-.327.18-.46v-2c-.627.013-1.14.053-1.54.12-.4.067-.713.18-.94.34-.227.147-.387.34-.48.58-.08.227-.12.507-.12.84 0 .507.12.9.36 1.18.24.28.573.42 1 .42zM109.8 28h-5.44v-.78a4.522 4.522 0 011.32-.48v-3.16c-.16.2-.407.36-.74.48a2.94 2.94 0 01-1 .18c-.614 0-1.18-.093-1.7-.28a3.58 3.58 0 01-1.32-.9c-.374-.4-.667-.907-.88-1.52-.2-.613-.3-1.34-.3-2.18 0-.96.106-1.787.32-2.48.213-.707.513-1.287.9-1.74a3.598 3.598 0 011.38-1.04 4.704 4.704 0 011.82-.34c.333 0 .64.053.92.16.28.093.48.22.6.38v-3.68l-1.52-.16v-.78c.186-.08.44-.16.76-.24a16.468 16.468 0 012.04-.38c.333-.053.613-.087.84-.1h.68v5.46c.186-.2.446-.36.78-.48.346-.12.706-.18 1.08-.18.6 0 1.146.093 1.64.28.506.187.94.473 1.3.86.36.387.64.873.84 1.46.2.573.3 1.253.3 2.04 0 1.013-.114 1.887-.34 2.62-.214.733-.514 1.34-.9 1.82-.387.48-.847.833-1.38 1.06a4.354 4.354 0 01-1.72.34c-.294 0-.594-.047-.9-.14-.307-.08-.54-.207-.7-.38v3.02c.493.08.933.24 1.32.48V28zm-5.16-5.02c.226 0 .426-.027.6-.08.173-.067.353-.193.54-.38v-7.16a1.917 1.917 0 00-.5-.24 1.863 1.863 0 00-.66-.1c-.267 0-.514.06-.74.18-.227.12-.427.32-.6.6-.174.267-.307.627-.4 1.08-.094.453-.14 1.02-.14 1.7 0 .907.046 1.647.14 2.22.093.56.22 1.007.38 1.34.173.32.373.54.6.66.24.12.5.18.78.18zm4.86-7.96c-.227 0-.427.033-.6.1-.16.053-.334.16-.52.32v7.18c.16.133.326.227.5.28.173.053.393.08.66.08.24 0 .473-.06.7-.18.226-.12.426-.327.6-.62.173-.307.313-.707.42-1.2.106-.493.16-1.12.16-1.88 0-.813-.047-1.487-.14-2.02-.08-.533-.2-.947-.36-1.24-.16-.307-.36-.52-.6-.64s-.514-.18-.82-.18zm14.9 6.08v.76c.013.213.033.44.06.68l1.38.2v.7c-.16.08-.38.16-.66.24-.267.08-.553.16-.86.24-.293.067-.587.12-.88.16a12.72 12.72 0 01-.78.12h-.68a2.956 2.956 0 01-.24-.92c-.027-.307-.047-.68-.06-1.12h-.1a2.68 2.68 0 01-.34.78 2.888 2.888 0 01-1.48 1.12 3.29 3.29 0 01-1.12.18c-.44 0-.847-.067-1.22-.2s-.7-.32-.98-.56c-.28-.24-.5-.527-.66-.86a2.736 2.736 0 01-.24-1.16c0-.6.113-1.093.34-1.48.227-.387.58-.7 1.06-.94.493-.253 1.12-.44 1.88-.56a27.2 27.2 0 012.8-.26c.107-1.147.06-1.987-.14-2.52-.2-.533-.633-.8-1.3-.8a3.16 3.16 0 00-1.14.2l-.94 2.4h-.88a6.433 6.433 0 01-.32-.54 32.734 32.734 0 01-.28-.66c-.08-.24-.153-.48-.22-.72a7.194 7.194 0 01-.12-.7c.507-.347 1.16-.62 1.96-.82.8-.2 1.647-.3 2.54-.3.76 0 1.38.087 1.86.26.48.16.853.387 1.12.68.28.28.473.613.58 1 .107.387.16.8.16 1.24 0 .8-.02 1.527-.06 2.18-.027.64-.04 1.3-.04 1.98zm-4.5 1.54c.28 0 .52-.053.72-.16.2-.107.367-.233.5-.38.147-.147.253-.307.32-.48.08-.173.14-.327.18-.46v-2c-.627.013-1.14.053-1.54.12-.4.067-.713.18-.94.34-.227.147-.387.34-.48.58-.08.227-.12.507-.12.84 0 .507.12.9.36 1.18.24.28.573.42 1 .42zM132.073 28h-5.52v-.78a7.212 7.212 0 011.32-.48V15.42l-1.32-.16v-.78c.213-.093.473-.18.78-.26.32-.08.646-.147.98-.2.333-.067.653-.12.96-.16l.8-.1h.68V16h.02c.226-.64.58-1.173 1.06-1.6.493-.427 1.173-.64 2.04-.64.586 0 1.113.1 1.58.3.48.187.88.487 1.2.9.333.4.586.92.76 1.56.186.627.28 1.38.28 2.26 0 .84-.12 1.6-.36 2.28-.227.68-.56 1.253-1 1.72a4.285 4.285 0 01-1.58 1.08c-.614.253-1.314.38-2.1.38-.454 0-.814-.033-1.08-.1a3.422 3.422 0 01-.82-.3v2.9c.213.027.426.073.64.14.213.08.44.193.68.34V28zm.64-12.64c-.454 0-.86.16-1.22.48-.347.32-.594.813-.74 1.48v5.32c.213.16.44.28.68.36.24.067.553.1.94.1.76 0 1.32-.367 1.68-1.1.36-.733.54-1.807.54-3.22 0-1.093-.14-1.933-.42-2.52-.267-.6-.754-.9-1.46-.9zM138.9 14h5.32v.78c-.146.08-.32.16-.52.24-.186.08-.413.16-.68.24v4.5l-.22 1.86h.1l.78-1.5 3.66-6.12h3.78v.78c-.426.24-.866.4-1.32.48v7.48c.254.067.494.14.72.22.227.067.427.153.6.26V24h-5.32v-.78a4.73 4.73 0 011.2-.48v-4.72l.2-1.58h-.1l-.76 1.5-3.62 6.06h-3.82v-.78a5.23 5.23 0 01.66-.26c.214-.08.434-.153.66-.22v-7.48c-.52-.08-.96-.24-1.32-.48V14zm28.29 10h-6.88v-.76c.267-.107.567-.213.9-.32.347-.12.693-.207 1.04-.26V11.3h-2.32l-1.28 3.42h-.82a15.472 15.472 0 01-.16-1.02c-.053-.413-.1-.84-.14-1.28a47.36 47.36 0 01-.1-1.3 18.69 18.69 0 01-.04-1.12h12.74c0 .32-.013.693-.04 1.12-.027.427-.06.86-.1 1.3-.04.44-.087.867-.14 1.28-.053.4-.107.74-.16 1.02h-.84l-1.28-3.42h-2.32v11.36c.347.067.687.147 1.02.24.347.093.653.207.92.34V24zm13.62-12.66a5.34 5.34 0 01-.84-.24c-.24-.107-.474-.22-.7-.34V10h4.84v.76a3.067 3.067 0 01-.6.32c-.24.093-.514.18-.82.26l-3.82 8.64c-.64 1.467-1.307 2.56-2 3.28-.694.707-1.434.987-2.22.84a2.238 2.238 0 01-.34-.48 31.27 31.27 0 01-.32-.7 10.57 10.57 0 01-.24-.72 3.317 3.317 0 01-.12-.6l.56-.8 2.38.74c.106-.12.206-.267.3-.44a4.77 4.77 0 00.26-.58l-5.32-9.18a6.816 6.816 0 01-.74-.24 7.173 7.173 0 01-.64-.34V10h6.24v.76c-.4.24-.907.433-1.52.58l2.82 5.42.42 1.28h.04l.4-1.32 1.98-5.38zm8.332 11.32a7.1 7.1 0 011.06.24c.36.093.68.207.96.34V24h-6.66v-.76c.253-.147.52-.267.8-.36.293-.093.573-.167.84-.22V11.34a6.055 6.055 0 01-.88-.22 5.002 5.002 0 01-.76-.36V10h2.52c.533 0 1.14-.027 1.82-.08.693-.053 1.326-.08 1.9-.08.706 0 1.393.073 2.06.22.68.133 1.28.367 1.8.7.533.333.96.78 1.28 1.34.32.547.48 1.233.48 2.06 0 .787-.16 1.467-.48 2.04a4.112 4.112 0 01-1.24 1.42c-.52.373-1.12.653-1.8.84a8.47 8.47 0 01-2.1.26h-.8c-.16-.013-.32-.02-.48-.02a3.332 3.332 0 01-.32-.04v4zm1.08-11.52c-.267 0-.48.013-.64.04-.147.013-.294.04-.44.08v6.08c.12.04.3.067.54.08h.58c.36 0 .706-.06 1.04-.18a2.37 2.37 0 00.88-.56c.266-.253.48-.58.64-.98.16-.4.24-.88.24-1.44 0-1.067-.26-1.853-.78-2.36-.52-.507-1.207-.76-2.06-.76zM203.315 24h-6.02v-.76a7.38 7.38 0 01.8-.36c.28-.107.56-.18.84-.22V11.34c-.267-.067-.547-.14-.84-.22a3.632 3.632 0 01-.8-.36V10h6.02v.76c-.2.12-.427.233-.68.34a3.922 3.922 0 01-.82.24v7.6l-.2 1.56.98-1.64 5.04-7.04v-.48c-.627-.147-1.154-.34-1.58-.58V10h6.02v.76a3.242 3.242 0 01-.78.36c-.28.08-.567.153-.86.22v11.32c.306.053.593.133.86.24.28.093.54.207.78.34V24h-6.02v-.76c.186-.093.406-.193.66-.3a4.43 4.43 0 01.84-.28v-7.58l.2-1.58-.9 1.58-5.12 7.14v.44c.306.067.593.153.86.26.266.107.506.213.72.32V24zm19.965-4.2h.82c.054.213.1.473.14.78.054.293.094.613.12.96.04.333.067.667.08 1 .014.333.02.633.02.9-.466.293-1.053.5-1.76.62-.693.12-1.406.18-2.14.18-1.106 0-2.113-.133-3.02-.4-.893-.28-1.66-.713-2.3-1.3-.626-.6-1.113-1.353-1.46-2.26-.346-.92-.52-2.02-.52-3.3 0-1.267.187-2.353.56-3.26.387-.92.9-1.673 1.54-2.26a5.875 5.875 0 012.22-1.28 8.545 8.545 0 012.68-.42c.88 0 1.674.067 2.38.2.72.12 1.307.287 1.76.5 0 .213-.013.487-.04.82-.013.333-.046.687-.1 1.06-.04.36-.093.72-.16 1.08-.053.347-.106.64-.16.88h-.84l-1.1-3.02c-.12-.067-.313-.12-.58-.16-.266-.04-.54-.06-.82-.06-.546 0-1.06.113-1.54.34-.48.213-.906.56-1.28 1.04-.373.48-.666 1.1-.88 1.86-.213.747-.32 1.647-.32 2.7 0 1.907.38 3.373 1.14 4.4.76 1.027 1.794 1.54 3.1 1.54.374 0 .687-.027.94-.08.267-.067.447-.153.54-.26l.98-2.8zm11.8 4.2h-6.88v-.76c.267-.107.567-.213.9-.32.347-.12.694-.207 1.04-.26V11.3h-2.32l-1.28 3.42h-.82a16.175 16.175 0 01-.16-1.02c-.053-.413-.1-.84-.14-1.28a47.36 47.36 0 01-.1-1.3 19.57 19.57 0 01-.04-1.12h12.74c0 .32-.013.693-.04 1.12-.026.427-.06.86-.1 1.3-.04.44-.086.867-.14 1.28-.053.4-.106.74-.16 1.02h-.84l-1.28-3.42h-2.32v11.36c.347.067.687.147 1.02.24.347.093.654.207.92.34V24zm9.66 0h-6.02v-.76a7.35 7.35 0 01.8-.36c.28-.107.56-.18.84-.22V11.34c-.266-.067-.546-.14-.84-.22a3.653 3.653 0 01-.8-.36V10h6.02v.76c-.2.12-.426.233-.68.34a3.887 3.887 0 01-.82.24v7.6l-.2 1.56.98-1.64 5.04-7.04v-.48c-.626-.147-1.153-.34-1.58-.58V10h6.02v.76a3.206 3.206 0 01-.78.36c-.28.08-.566.153-.86.22v11.32c.307.053.594.133.86.24.28.093.54.207.78.34V24h-6.02v-.76c.187-.093.407-.193.66-.3.267-.12.547-.213.84-.28v-7.58l.2-1.58-.9 1.58-5.12 7.14v.44c.307.067.594.153.86.26.267.107.507.213.72.32V24zm17.146-14h5.36v.76a3.824 3.824 0 01-.78.38c-.293.093-.56.16-.8.2l-3.8 4.82c.307.427.667.913 1.08 1.46.414.533.854 1.093 1.32 1.68a536 536 0 001.44 1.76c.494.587.974 1.147 1.44 1.68l.96.58V24h-3.48l-.8-.56c-.32-.4-.66-.84-1.02-1.32a78.4 78.4 0 01-1.04-1.52c-.346-.533-.686-1.067-1.02-1.6a56.184 56.184 0 01-.94-1.56h-.86v5.22c.294.053.56.133.8.24.24.107.447.22.62.34V24h-6.06v-.76c.267-.133.54-.247.82-.34.28-.107.554-.187.82-.24V11.34a4.243 4.243 0 01-.9-.22 4.278 4.278 0 01-.74-.36V10h6.06v.76a4.691 4.691 0 01-.64.32c-.24.107-.5.193-.78.26v5.08l1.18-.28 3.22-4.8a4.58 4.58 0 01-.8-.24 9.945 9.945 0 01-.66-.34V10zM81.214 35.203V48h-1.67V35.203h1.67zm4.113 0v1.389H75.44v-1.389h9.888zm3.692 11.813l2.645-8.526h1.74L89.59 49.468a6.026 6.026 0 01-.352.756 3.62 3.62 0 01-.545.782 2.594 2.594 0 01-.808.597c-.31.159-.683.238-1.116.238-.13 0-.293-.018-.493-.053a4.418 4.418 0 01-.421-.088l-.01-1.318c.048.006.12.012.22.017.106.012.18.018.22.018.37 0 .683-.05.94-.15.258-.093.475-.254.651-.483.182-.222.337-.53.466-.923l.677-1.845zm-1.943-8.526l2.47 7.383.422 1.714-1.17.598-3.497-9.695h1.775zm9.422 1.828v11.338h-1.635V38.49h1.494l.141 1.828zm6.407 2.848v.185c0 .691-.082 1.333-.246 1.924a4.72 4.72 0 01-.721 1.53c-.31.433-.694.77-1.151 1.01-.457.24-.981.36-1.573.36-.604 0-1.137-.099-1.6-.298-.463-.2-.855-.49-1.178-.87a4.444 4.444 0 01-.773-1.371 7.934 7.934 0 01-.387-1.802v-.984a8.28 8.28 0 01.396-1.89 4.707 4.707 0 01.764-1.424c.323-.398.712-.7 1.17-.905.457-.211.984-.316 1.582-.316.597 0 1.127.117 1.59.351.463.229.853.557 1.169.984.317.428.554.94.712 1.538a7.4 7.4 0 01.246 1.978zm-1.634.185v-.185c0-.475-.05-.92-.15-1.336a3.382 3.382 0 00-.466-1.107 2.213 2.213 0 00-.79-.756c-.323-.188-.707-.282-1.152-.282-.41 0-.768.07-1.072.212a2.3 2.3 0 00-.765.57 3.03 3.03 0 00-.519.81 4.64 4.64 0 00-.29.931v2.276c.118.41.282.797.493 1.16.21.358.492.648.843.87.352.217.794.326 1.328.326.439 0 .817-.091 1.133-.273a2.29 2.29 0 00.791-.764c.211-.322.366-.692.466-1.108.1-.422.15-.87.15-1.344zm9.316 3.023v-4.896c0-.375-.076-.7-.229-.975a1.493 1.493 0 00-.668-.65c-.298-.153-.668-.229-1.107-.229-.41 0-.771.07-1.081.211-.305.14-.545.325-.721.554a1.21 1.21 0 00-.255.738H104.9c0-.34.088-.677.264-1.01.176-.335.428-.636.756-.906a3.778 3.778 0 011.195-.65c.469-.164.99-.246 1.565-.246.691 0 1.3.117 1.828.351a2.74 2.74 0 011.248 1.064c.305.468.457 1.057.457 1.766v4.43c0 .316.026.653.079 1.01.059.358.144.666.255.923V48h-1.696a3.041 3.041 0 01-.194-.747 6.004 6.004 0 01-.07-.879zm.281-4.14l.018 1.143h-1.644a6.08 6.08 0 00-1.239.114 2.84 2.84 0 00-.914.325 1.55 1.55 0 00-.563.554 1.467 1.467 0 00-.193.765c0 .299.067.571.202.817s.337.443.607.589c.275.14.612.211 1.01.211.498 0 .938-.105 1.319-.317a2.73 2.73 0 00.905-.773c.228-.305.352-.6.369-.888l.694.783c-.041.246-.152.518-.334.817a3.938 3.938 0 01-1.801 1.538 3.49 3.49 0 01-1.389.264c-.644 0-1.21-.126-1.696-.378a2.893 2.893 0 01-1.125-1.01 2.673 2.673 0 01-.396-1.433c0-.51.1-.958.299-1.345.199-.393.486-.718.861-.976a4.098 4.098 0 011.354-.597 7.141 7.141 0 011.767-.203h1.889zm10.046-3.744v1.345h-4.394V48h-1.626v-9.51h6.02zm5.186 9.686a4.678 4.678 0 01-1.802-.334 4.09 4.09 0 01-1.38-.958 4.259 4.259 0 01-.879-1.46 5.353 5.353 0 01-.308-1.845v-.369c0-.773.115-1.462.343-2.066a4.623 4.623 0 01.932-1.546 3.986 3.986 0 011.336-.958 3.836 3.836 0 011.547-.325c.679 0 1.265.117 1.757.351a3.2 3.2 0 011.222.984c.317.416.551.909.703 1.477.153.563.229 1.178.229 1.846v.73h-7.102v-1.328h5.476v-.123a4.083 4.083 0 00-.264-1.23 2.21 2.21 0 00-.703-.985c-.322-.258-.762-.387-1.318-.387a2.217 2.217 0 00-1.82.923 3.464 3.464 0 00-.518 1.117 5.653 5.653 0 00-.185 1.52v.37c0 .45.062.875.185 1.273.129.393.313.739.553 1.038.247.299.542.533.888.703.352.17.75.255 1.196.255.574 0 1.06-.118 1.458-.352a3.596 3.596 0 001.046-.94l.985.782c-.205.31-.466.606-.782.888-.317.28-.707.51-1.169.685-.457.176-.999.264-1.626.264zm12.049-5.564v1.319h-5.027v-1.319h5.027zm-4.684-4.122V48h-1.626v-9.51h1.626zm6.003 0V48h-1.635v-9.51h1.635zm6.495 0V48h-1.635v-9.51h1.635zm3.19 0v1.319h-7.954V38.49h7.954zm4.702 8.35c.387 0 .745-.08 1.073-.238a2.2 2.2 0 00.808-.65c.211-.281.331-.6.361-.958h1.547a2.903 2.903 0 01-.572 1.573c-.345.48-.8.87-1.362 1.17a3.956 3.956 0 01-1.855.439c-.714 0-1.338-.126-1.872-.378a3.716 3.716 0 01-1.318-1.037 4.63 4.63 0 01-.782-1.512 6.376 6.376 0 01-.255-1.82v-.369c0-.638.085-1.242.255-1.81a4.617 4.617 0 01.782-1.52c.352-.44.791-.786 1.318-1.038.534-.252 1.158-.377 1.872-.377.745 0 1.395.152 1.952.457.556.298.993.709 1.309 1.23.322.516.498 1.101.528 1.758h-1.547a2.355 2.355 0 00-.334-1.064 2.089 2.089 0 00-.774-.756c-.322-.193-.7-.29-1.134-.29-.498 0-.917.1-1.256.3a2.201 2.201 0 00-.8.79 3.68 3.68 0 00-.422 1.099 6.044 6.044 0 00-.123 1.221v.37c0 .416.041.826.123 1.23.082.405.22.77.413 1.099.199.328.466.592.8.79.34.194.762.29 1.265.29zm9.493-8.35V48h-1.635v-9.51h1.635zm3.19 0v1.319h-7.954V38.49h7.954zm6.065 5.326h-3.121l-.017-1.3h2.549c.504 0 .923-.05 1.257-.15.339-.1.594-.249.764-.448.17-.2.255-.445.255-.738 0-.229-.05-.428-.149-.598a1.091 1.091 0 00-.431-.43 2.124 2.124 0 00-.721-.255 4.918 4.918 0 00-.993-.088h-2.083V48h-1.626v-9.51h3.709a7.61 7.61 0 011.626.158 3.78 3.78 0 011.239.484c.346.21.61.48.791.808.182.329.273.715.273 1.16a1.956 1.956 0 01-.695 1.503c-.228.2-.509.364-.843.493a4.344 4.344 0 01-1.152.237l-.632.483zm0 4.184h-3.709l.808-1.318h2.901c.451 0 .826-.056 1.125-.167.298-.117.521-.282.668-.492.152-.217.228-.475.228-.774 0-.299-.076-.554-.228-.765-.147-.216-.37-.38-.668-.492-.299-.117-.674-.176-1.125-.176h-2.47l.017-1.3h3.085l.589.492c.522.04.964.17 1.327.386.364.217.639.493.827.827.187.328.281.685.281 1.072 0 .445-.085.838-.255 1.178a2.23 2.23 0 01-.721.852c-.316.223-.7.393-1.151.51a6.4 6.4 0 01-1.529.167zm5.405-4.65v-.202c0-.685.099-1.32.299-1.907a4.528 4.528 0 01.861-1.538c.375-.44.829-.78 1.362-1.02.533-.245 1.131-.368 1.793-.368.668 0 1.269.123 1.802.369.539.24.996.58 1.371 1.02.381.433.671.945.87 1.537.199.586.299 1.222.299 1.907v.203a5.9 5.9 0 01-.299 1.907 4.557 4.557 0 01-.87 1.538 3.987 3.987 0 01-1.362 1.02c-.528.24-1.125.36-1.793.36-.668 0-1.269-.12-1.802-.36a4.08 4.08 0 01-1.371-1.02 4.641 4.641 0 01-.861-1.538 5.868 5.868 0 01-.299-1.907zm1.626-.202v.203c0 .474.055.922.167 1.344.111.416.278.785.501 1.108.228.322.512.577.852.764.34.182.736.273 1.187.273.445 0 .835-.091 1.169-.273.34-.187.621-.442.844-.764.222-.322.389-.692.5-1.108a4.97 4.97 0 00.176-1.344v-.203c0-.468-.058-.91-.176-1.327a3.42 3.42 0 00-.509-1.116 2.425 2.425 0 00-.844-.773c-.334-.188-.727-.282-1.178-.282-.445 0-.838.094-1.177.282a2.525 2.525 0 00-.844.773 3.51 3.51 0 00-.501 1.116 5.086 5.086 0 00-.167 1.327z" fill="#fff"/><circle cx="30" cy="30" r="29.5" stroke="#fff"/><path d="M63.208 10.536l-2.131-3.108-1.79-1.551-.017-1.27L58.421 4l-1.065 2.266-1.61-1.044-.557.567.626 1.256-9.245 8.813-14.559 7.093-4.367.967-1.027.527-2.713 3.506-1.127 3.796-.264 2.098.584 1.252.062-.457 1.04-3.785-.993 7.643-1.126 3.446L20 52.432h1.888l-.57-.95.991-5.01 3.745-7.48-.688 2.812 2.926 10.628h1.99l-.832-1.06-1.396-4.164-.59-6.253 2.145-4.94 1.284-1.254 5.952.009 1.053 1.05-1.925 14.327.077 2.285h1.894l-.699-1.05.261-5.455 2.905-9.986.357.003 6.377 16.488h1.914l-.972-.994-1.734-4.688-2.718-11.83.72-6.068-.352-1.693.331-1.191 12.371-14.046 1.885-.368 4.759 1.732.338-1.342-.48-1.408z" fill="#fff"/></svg>