<svg width="285" height="60" viewBox="0 0 285 60" fill="none" xmlns="http://www.w3.org/2000/svg">
<path d="M85.8 19.8H86.62C86.6733 20.0133 86.72 20.2733 86.76 20.58C86.8133 20.8733 86.8533 21.1933 86.88 21.54C86.92 21.8733 86.9467 22.2067 86.96 22.54C86.9733 22.8733 86.98 23.1733 86.98 23.44C86.5133 23.7333 85.9267 23.94 85.22 24.06C84.5267 24.18 83.8133 24.24 83.08 24.24C81.9733 24.24 80.9667 24.1067 80.06 23.84C79.1667 23.56 78.4 23.1267 77.76 22.54C77.1333 21.94 76.6467 21.1867 76.3 20.28C75.9533 19.36 75.78 18.26 75.78 16.98C75.78 15.7133 75.9667 14.6267 76.34 13.72C76.7267 12.8 77.24 12.0467 77.88 11.46C78.52 10.8733 79.26 10.4467 80.1 10.18C80.9533 9.9 81.8467 9.76 82.78 9.76C83.66 9.76 84.4533 9.82667 85.16 9.96C85.88 10.08 86.4667 10.2467 86.92 10.46C86.92 10.6733 86.9067 10.9467 86.88 11.28C86.8667 11.6133 86.8333 11.9667 86.78 12.34C86.74 12.7 86.6867 13.06 86.62 13.42C86.5667 13.7667 86.5133 14.06 86.46 14.3H85.62L84.52 11.28C84.4 11.2133 84.2067 11.16 83.94 11.12C83.6733 11.08 83.4 11.06 83.12 11.06C82.5733 11.06 82.06 11.1733 81.58 11.4C81.1 11.6133 80.6733 11.96 80.3 12.44C79.9267 12.92 79.6333 13.54 79.42 14.3C79.2067 15.0467 79.1 15.9467 79.1 17C79.1 18.9067 79.48 20.3733 80.24 21.4C81 22.4267 82.0333 22.94 83.34 22.94C83.7133 22.94 84.0267 22.9133 84.28 22.86C84.5467 22.7933 84.7267 22.7067 84.82 22.6L85.8 19.8ZM97.4469 21.1C97.4469 21.3933 97.4469 21.6467 97.4469 21.86C97.4602 22.0733 97.4802 22.3 97.5069 22.54L98.8869 22.74V23.44C98.7269 23.52 98.5069 23.6 98.2269 23.68C97.9602 23.76 97.6735 23.84 97.3669 23.92C97.0735 23.9867 96.7802 24.04 96.4869 24.08C96.1935 24.1333 95.9335 24.1733 95.7069 24.2H95.0269C94.8935 23.8933 94.8135 23.5867 94.7869 23.28C94.7602 22.9733 94.7402 22.6 94.7269 22.16H94.6269C94.5602 22.4267 94.4469 22.6867 94.2869 22.94C94.1269 23.18 93.9202 23.4 93.6669 23.6C93.4269 23.7867 93.1402 23.94 92.8069 24.06C92.4735 24.18 92.1002 24.24 91.6869 24.24C91.2469 24.24 90.8402 24.1733 90.4669 24.04C90.0935 23.9067 89.7669 23.72 89.4869 23.48C89.2069 23.24 88.9869 22.9533 88.8269 22.62C88.6669 22.2733 88.5869 21.8867 88.5869 21.46C88.5869 20.86 88.7002 20.3667 88.9269 19.98C89.1535 19.5933 89.5069 19.28 89.9869 19.04C90.4802 18.7867 91.1069 18.6 91.8669 18.48C92.6402 18.36 93.5735 18.2733 94.6669 18.22C94.7735 17.0733 94.7269 16.2333 94.5269 15.7C94.3269 15.1667 93.8935 14.9 93.2269 14.9C92.8135 14.9 92.4335 14.9667 92.0869 15.1L91.1469 17.5H90.2669C90.1602 17.34 90.0535 17.16 89.9469 16.96C89.8535 16.7467 89.7602 16.5267 89.6669 16.3C89.5869 16.06 89.5135 15.82 89.4469 15.58C89.3935 15.34 89.3535 15.1067 89.3269 14.88C89.8335 14.5333 90.4869 14.26 91.2869 14.06C92.0869 13.86 92.9335 13.76 93.8269 13.76C94.5869 13.76 95.2069 13.8467 95.6869 14.02C96.1669 14.18 96.5402 14.4067 96.8069 14.7C97.0869 14.98 97.2802 15.3133 97.3869 15.7C97.4935 16.0867 97.5469 16.5 97.5469 16.94C97.5469 17.74 97.5269 18.4667 97.4869 19.12C97.4602 19.76 97.4469 20.42 97.4469 21.1ZM92.9469 22.64C93.2269 22.64 93.4669 22.5867 93.6669 22.48C93.8669 22.3733 94.0335 22.2467 94.1669 22.1C94.3135 21.9533 94.4202 21.7933 94.4869 21.62C94.5669 21.4467 94.6269 21.2933 94.6669 21.16V19.16C94.0402 19.1733 93.5269 19.2133 93.1269 19.28C92.7269 19.3467 92.4135 19.46 92.1869 19.62C91.9602 19.7667 91.8002 19.96 91.7069 20.2C91.6269 20.4267 91.5869 20.7067 91.5869 21.04C91.5869 21.5467 91.7069 21.94 91.9469 22.22C92.1869 22.5 92.5202 22.64 92.9469 22.64ZM109.8 28H104.36V27.22C104.733 27.0067 105.173 26.8467 105.68 26.74V23.58C105.52 23.78 105.273 23.94 104.94 24.06C104.606 24.18 104.273 24.24 103.94 24.24C103.326 24.24 102.76 24.1467 102.24 23.96C101.733 23.76 101.293 23.46 100.92 23.06C100.546 22.66 100.253 22.1533 100.04 21.54C99.8397 20.9267 99.7397 20.2 99.7397 19.36C99.7397 18.4 99.8464 17.5733 100.06 16.88C100.273 16.1733 100.573 15.5933 100.96 15.14C101.346 14.6733 101.806 14.3267 102.34 14.1C102.886 13.8733 103.493 13.76 104.16 13.76C104.493 13.76 104.8 13.8133 105.08 13.92C105.36 14.0133 105.56 14.14 105.68 14.3V10.62L104.16 10.46V9.68C104.346 9.6 104.6 9.52 104.92 9.44C105.24 9.36 105.573 9.28667 105.92 9.22C106.28 9.15333 106.626 9.1 106.96 9.06C107.293 9.00667 107.573 8.97333 107.8 8.96H108.48V14.42C108.666 14.22 108.926 14.06 109.26 13.94C109.606 13.82 109.966 13.76 110.34 13.76C110.94 13.76 111.486 13.8533 111.98 14.04C112.486 14.2267 112.92 14.5133 113.28 14.9C113.64 15.2867 113.92 15.7733 114.12 16.36C114.32 16.9333 114.42 17.6133 114.42 18.4C114.42 19.4133 114.306 20.2867 114.08 21.02C113.866 21.7533 113.566 22.36 113.18 22.84C112.793 23.32 112.333 23.6733 111.8 23.9C111.266 24.1267 110.693 24.24 110.08 24.24C109.786 24.24 109.486 24.1933 109.18 24.1C108.873 24.02 108.64 23.8933 108.48 23.72V26.74C108.973 26.82 109.413 26.98 109.8 27.22V28ZM104.64 22.98C104.866 22.98 105.066 22.9533 105.24 22.9C105.413 22.8333 105.593 22.7067 105.78 22.52V15.36C105.62 15.2533 105.453 15.1733 105.28 15.12C105.106 15.0533 104.886 15.02 104.62 15.02C104.353 15.02 104.106 15.08 103.88 15.2C103.653 15.32 103.453 15.52 103.28 15.8C103.106 16.0667 102.973 16.4267 102.88 16.88C102.786 17.3333 102.74 17.9 102.74 18.58C102.74 19.4867 102.786 20.2267 102.88 20.8C102.973 21.36 103.1 21.8067 103.26 22.14C103.433 22.46 103.633 22.68 103.86 22.8C104.1 22.92 104.36 22.98 104.64 22.98ZM109.5 15.02C109.273 15.02 109.073 15.0533 108.9 15.12C108.74 15.1733 108.566 15.28 108.38 15.44V22.62C108.54 22.7533 108.706 22.8467 108.88 22.9C109.053 22.9533 109.273 22.98 109.54 22.98C109.78 22.98 110.013 22.92 110.24 22.8C110.466 22.68 110.666 22.4733 110.84 22.18C111.013 21.8733 111.153 21.4733 111.26 20.98C111.366 20.4867 111.42 19.86 111.42 19.1C111.42 18.2867 111.373 17.6133 111.28 17.08C111.2 16.5467 111.08 16.1333 110.92 15.84C110.76 15.5333 110.56 15.32 110.32 15.2C110.08 15.08 109.806 15.02 109.5 15.02ZM124.4 21.1C124.4 21.3933 124.4 21.6467 124.4 21.86C124.413 22.0733 124.433 22.3 124.46 22.54L125.84 22.74V23.44C125.68 23.52 125.46 23.6 125.18 23.68C124.913 23.76 124.627 23.84 124.32 23.92C124.027 23.9867 123.733 24.04 123.44 24.08C123.147 24.1333 122.887 24.1733 122.66 24.2H121.98C121.847 23.8933 121.767 23.5867 121.74 23.28C121.713 22.9733 121.693 22.6 121.68 22.16H121.58C121.513 22.4267 121.4 22.6867 121.24 22.94C121.08 23.18 120.873 23.4 120.62 23.6C120.38 23.7867 120.093 23.94 119.76 24.06C119.427 24.18 119.053 24.24 118.64 24.24C118.2 24.24 117.793 24.1733 117.42 24.04C117.047 23.9067 116.72 23.72 116.44 23.48C116.16 23.24 115.94 22.9533 115.78 22.62C115.62 22.2733 115.54 21.8867 115.54 21.46C115.54 20.86 115.653 20.3667 115.88 19.98C116.107 19.5933 116.46 19.28 116.94 19.04C117.433 18.7867 118.06 18.6 118.82 18.48C119.593 18.36 120.527 18.2733 121.62 18.22C121.727 17.0733 121.68 16.2333 121.48 15.7C121.28 15.1667 120.847 14.9 120.18 14.9C119.767 14.9 119.387 14.9667 119.04 15.1L118.1 17.5H117.22C117.113 17.34 117.007 17.16 116.9 16.96C116.807 16.7467 116.713 16.5267 116.62 16.3C116.54 16.06 116.467 15.82 116.4 15.58C116.347 15.34 116.307 15.1067 116.28 14.88C116.787 14.5333 117.44 14.26 118.24 14.06C119.04 13.86 119.887 13.76 120.78 13.76C121.54 13.76 122.16 13.8467 122.64 14.02C123.12 14.18 123.493 14.4067 123.76 14.7C124.04 14.98 124.233 15.3133 124.34 15.7C124.447 16.0867 124.5 16.5 124.5 16.94C124.5 17.74 124.48 18.4667 124.44 19.12C124.413 19.76 124.4 20.42 124.4 21.1ZM119.9 22.64C120.18 22.64 120.42 22.5867 120.62 22.48C120.82 22.3733 120.987 22.2467 121.12 22.1C121.267 21.9533 121.373 21.7933 121.44 21.62C121.52 21.4467 121.58 21.2933 121.62 21.16V19.16C120.993 19.1733 120.48 19.2133 120.08 19.28C119.68 19.3467 119.367 19.46 119.14 19.62C118.913 19.7667 118.753 19.96 118.66 20.2C118.58 20.4267 118.54 20.7067 118.54 21.04C118.54 21.5467 118.66 21.94 118.9 22.22C119.14 22.5 119.473 22.64 119.9 22.64ZM132.073 28H126.553V27.22C127.006 27.0067 127.446 26.8467 127.873 26.74V15.42L126.553 15.26V14.48C126.766 14.3867 127.026 14.3 127.333 14.22C127.653 14.14 127.979 14.0733 128.313 14.02C128.646 13.9533 128.966 13.9 129.273 13.86C129.593 13.82 129.859 13.7867 130.073 13.76H130.753V16H130.773C130.999 15.36 131.353 14.8267 131.833 14.4C132.326 13.9733 133.006 13.76 133.873 13.76C134.459 13.76 134.986 13.86 135.453 14.06C135.933 14.2467 136.333 14.5467 136.653 14.96C136.986 15.36 137.239 15.88 137.413 16.52C137.599 17.1467 137.693 17.9 137.693 18.78C137.693 19.62 137.573 20.38 137.333 21.06C137.106 21.74 136.773 22.3133 136.333 22.78C135.906 23.2467 135.379 23.6067 134.753 23.86C134.139 24.1133 133.439 24.24 132.653 24.24C132.199 24.24 131.839 24.2067 131.573 24.14C131.319 24.0867 131.046 23.9867 130.753 23.84V26.74C130.966 26.7667 131.179 26.8133 131.393 26.88C131.606 26.96 131.833 27.0733 132.073 27.22V28ZM132.713 15.36C132.259 15.36 131.853 15.52 131.493 15.84C131.146 16.16 130.899 16.6533 130.753 17.32V22.64C130.966 22.8 131.193 22.92 131.433 23C131.673 23.0667 131.986 23.1 132.373 23.1C133.133 23.1 133.693 22.7333 134.053 22C134.413 21.2667 134.593 20.1933 134.593 18.78C134.593 17.6867 134.453 16.8467 134.173 16.26C133.906 15.66 133.419 15.36 132.713 15.36ZM138.9 14H144.22V14.78C144.074 14.86 143.9 14.94 143.7 15.02C143.514 15.1 143.287 15.18 143.02 15.26V19.76L142.8 21.62H142.9L143.68 20.12L147.34 14H151.12V14.78C150.694 15.02 150.254 15.18 149.8 15.26V22.74C150.054 22.8067 150.294 22.88 150.52 22.96C150.747 23.0267 150.947 23.1133 151.12 23.22V24H145.8V23.22C146.174 23.0067 146.574 22.8467 147 22.74V18.02L147.2 16.44H147.1L146.34 17.94L142.72 24H138.9V23.22C139.127 23.1133 139.347 23.0267 139.56 22.96C139.774 22.88 139.994 22.8067 140.22 22.74V15.26C139.7 15.18 139.26 15.02 138.9 14.78V14ZM167.19 24H160.31V23.24C160.577 23.1333 160.877 23.0267 161.21 22.92C161.557 22.8 161.903 22.7133 162.25 22.66V11.3H159.93L158.65 14.72H157.83C157.777 14.4533 157.723 14.1133 157.67 13.7C157.617 13.2867 157.57 12.86 157.53 12.42C157.49 11.98 157.457 11.5467 157.43 11.12C157.403 10.68 157.39 10.3067 157.39 10H170.13C170.13 10.32 170.117 10.6933 170.09 11.12C170.063 11.5467 170.03 11.98 169.99 12.42C169.95 12.86 169.903 13.2867 169.85 13.7C169.797 14.1 169.743 14.44 169.69 14.72H168.85L167.57 11.3H165.25V22.66C165.597 22.7267 165.937 22.8067 166.27 22.9C166.617 22.9933 166.923 23.1067 167.19 23.24V24ZM180.81 11.34C180.49 11.2733 180.21 11.1933 179.97 11.1C179.73 10.9933 179.496 10.88 179.27 10.76V10H184.11V10.76C183.963 10.8667 183.763 10.9733 183.51 11.08C183.27 11.1733 182.996 11.26 182.69 11.34L178.87 19.98C178.23 21.4467 177.563 22.54 176.87 23.26C176.176 23.9667 175.436 24.2467 174.65 24.1C174.543 23.9933 174.43 23.8333 174.31 23.62C174.203 23.3933 174.096 23.16 173.99 22.92C173.896 22.6667 173.816 22.4267 173.75 22.2C173.683 21.96 173.643 21.76 173.63 21.6L174.19 20.8L176.57 21.54C176.676 21.42 176.776 21.2733 176.87 21.1C176.963 20.9267 177.05 20.7333 177.13 20.52L171.81 11.34C171.556 11.2733 171.31 11.1933 171.07 11.1C170.843 10.9933 170.63 10.88 170.43 10.76V10H176.67V10.76C176.27 11 175.763 11.1933 175.15 11.34L177.97 16.76L178.39 18.04H178.43L178.83 16.72L180.81 11.34ZM189.142 22.66C189.502 22.7133 189.855 22.7933 190.202 22.9C190.562 22.9933 190.882 23.1067 191.162 23.24V24H184.502V23.24C184.755 23.0933 185.022 22.9733 185.302 22.88C185.595 22.7867 185.875 22.7133 186.142 22.66V11.34C185.835 11.2867 185.542 11.2133 185.262 11.12C184.982 11.0133 184.728 10.8933 184.502 10.76V10H187.022C187.555 10 188.162 9.97333 188.842 9.92C189.535 9.86667 190.168 9.84 190.742 9.84C191.448 9.84 192.135 9.91333 192.802 10.06C193.482 10.1933 194.082 10.4267 194.602 10.76C195.135 11.0933 195.562 11.54 195.882 12.1C196.202 12.6467 196.362 13.3333 196.362 14.16C196.362 14.9467 196.202 15.6267 195.882 16.2C195.575 16.7733 195.162 17.2467 194.642 17.62C194.122 17.9933 193.522 18.2733 192.842 18.46C192.162 18.6333 191.462 18.72 190.742 18.72C190.675 18.72 190.568 18.72 190.422 18.72C190.275 18.72 190.115 18.72 189.942 18.72C189.782 18.7067 189.622 18.7 189.462 18.7C189.315 18.6867 189.208 18.6733 189.142 18.66V22.66ZM190.222 11.14C189.955 11.14 189.742 11.1533 189.582 11.18C189.435 11.1933 189.288 11.22 189.142 11.26V17.34C189.262 17.38 189.442 17.4067 189.682 17.42C189.922 17.42 190.115 17.42 190.262 17.42C190.622 17.42 190.968 17.36 191.302 17.24C191.635 17.12 191.928 16.9333 192.182 16.68C192.448 16.4267 192.662 16.1 192.822 15.7C192.982 15.3 193.062 14.82 193.062 14.26C193.062 13.1933 192.802 12.4067 192.282 11.9C191.762 11.3933 191.075 11.14 190.222 11.14ZM203.315 24H197.295V23.24C197.548 23.1067 197.815 22.9867 198.095 22.88C198.375 22.7733 198.655 22.7 198.935 22.66V11.34C198.668 11.2733 198.388 11.2 198.095 11.12C197.801 11.0267 197.535 10.9067 197.295 10.76V10H203.315V10.76C203.115 10.88 202.888 10.9933 202.635 11.1C202.381 11.2067 202.108 11.2867 201.815 11.34V18.94L201.615 20.5L202.595 18.86L207.635 11.82V11.34C207.008 11.1933 206.481 11 206.055 10.76V10H212.075V10.76C211.848 10.9067 211.588 11.0267 211.295 11.12C211.015 11.2 210.728 11.2733 210.435 11.34V22.66C210.741 22.7133 211.028 22.7933 211.295 22.9C211.575 22.9933 211.835 23.1067 212.075 23.24V24H206.055V23.24C206.241 23.1467 206.461 23.0467 206.715 22.94C206.981 22.82 207.261 22.7267 207.555 22.66V15.08L207.755 13.5L206.855 15.08L201.735 22.22V22.66C202.041 22.7267 202.328 22.8133 202.595 22.92C202.861 23.0267 203.101 23.1333 203.315 23.24V24ZM223.28 19.8H224.1C224.154 20.0133 224.2 20.2733 224.24 20.58C224.294 20.8733 224.334 21.1933 224.36 21.54C224.4 21.8733 224.427 22.2067 224.44 22.54C224.454 22.8733 224.46 23.1733 224.46 23.44C223.994 23.7333 223.407 23.94 222.7 24.06C222.007 24.18 221.294 24.24 220.56 24.24C219.454 24.24 218.447 24.1067 217.54 23.84C216.647 23.56 215.88 23.1267 215.24 22.54C214.614 21.94 214.127 21.1867 213.78 20.28C213.434 19.36 213.26 18.26 213.26 16.98C213.26 15.7133 213.447 14.6267 213.82 13.72C214.207 12.8 214.72 12.0467 215.36 11.46C216 10.8733 216.74 10.4467 217.58 10.18C218.434 9.9 219.327 9.76 220.26 9.76C221.14 9.76 221.934 9.82667 222.64 9.96C223.36 10.08 223.947 10.2467 224.4 10.46C224.4 10.6733 224.387 10.9467 224.36 11.28C224.347 11.6133 224.314 11.9667 224.26 12.34C224.22 12.7 224.167 13.06 224.1 13.42C224.047 13.7667 223.994 14.06 223.94 14.3H223.1L222 11.28C221.88 11.2133 221.687 11.16 221.42 11.12C221.154 11.08 220.88 11.06 220.6 11.06C220.054 11.06 219.54 11.1733 219.06 11.4C218.58 11.6133 218.154 11.96 217.78 12.44C217.407 12.92 217.114 13.54 216.9 14.3C216.687 15.0467 216.58 15.9467 216.58 17C216.58 18.9067 216.96 20.3733 217.72 21.4C218.48 22.4267 219.514 22.94 220.82 22.94C221.194 22.94 221.507 22.9133 221.76 22.86C222.027 22.7933 222.207 22.7067 222.3 22.6L223.28 19.8ZM235.08 24H228.2V23.24C228.467 23.1333 228.767 23.0267 229.1 22.92C229.447 22.8 229.794 22.7133 230.14 22.66V11.3H227.82L226.54 14.72H225.72C225.667 14.4533 225.614 14.1133 225.56 13.7C225.507 13.2867 225.46 12.86 225.42 12.42C225.38 11.98 225.347 11.5467 225.32 11.12C225.294 10.68 225.28 10.3067 225.28 10H238.02C238.02 10.32 238.007 10.6933 237.98 11.12C237.954 11.5467 237.92 11.98 237.88 12.42C237.84 12.86 237.794 13.2867 237.74 13.7C237.687 14.1 237.634 14.44 237.58 14.72H236.74L235.46 11.3H233.14V22.66C233.487 22.7267 233.827 22.8067 234.16 22.9C234.507 22.9933 234.814 23.1067 235.08 23.24V24ZM244.74 24H238.72V23.24C238.974 23.1067 239.24 22.9867 239.52 22.88C239.8 22.7733 240.08 22.7 240.36 22.66V11.34C240.094 11.2733 239.814 11.2 239.52 11.12C239.227 11.0267 238.96 10.9067 238.72 10.76V10H244.74V10.76C244.54 10.88 244.314 10.9933 244.06 11.1C243.807 11.2067 243.534 11.2867 243.24 11.34V18.94L243.04 20.5L244.02 18.86L249.06 11.82V11.34C248.434 11.1933 247.907 11 247.48 10.76V10H253.5V10.76C253.274 10.9067 253.014 11.0267 252.72 11.12C252.44 11.2 252.154 11.2733 251.86 11.34V22.66C252.167 22.7133 252.454 22.7933 252.72 22.9C253 22.9933 253.26 23.1067 253.5 23.24V24H247.48V23.24C247.667 23.1467 247.887 23.0467 248.14 22.94C248.407 22.82 248.687 22.7267 248.98 22.66V15.08L249.18 13.5L248.28 15.08L243.16 22.22V22.66C243.467 22.7267 243.754 22.8133 244.02 22.92C244.287 23.0267 244.527 23.1333 244.74 23.24V24ZM261.886 10H267.246V10.76C267.02 10.9067 266.76 11.0333 266.466 11.14C266.173 11.2333 265.906 11.3 265.666 11.34L261.866 16.16C262.173 16.5867 262.533 17.0733 262.946 17.62C263.36 18.1533 263.8 18.7133 264.266 19.3C264.733 19.8733 265.213 20.46 265.706 21.06C266.2 21.6467 266.68 22.2067 267.146 22.74L268.106 23.32V24H264.626L263.826 23.44C263.506 23.04 263.166 22.6 262.806 22.12C262.46 21.6267 262.113 21.12 261.766 20.6C261.42 20.0667 261.08 19.5333 260.746 19C260.413 18.4667 260.1 17.9467 259.806 17.44H258.946V22.66C259.24 22.7133 259.506 22.7933 259.746 22.9C259.986 23.0067 260.193 23.12 260.366 23.24V24H254.306V23.24C254.573 23.1067 254.846 22.9933 255.126 22.9C255.406 22.7933 255.68 22.7133 255.946 22.66V11.34C255.64 11.3 255.34 11.2267 255.046 11.12C254.766 11.0133 254.52 10.8933 254.306 10.76V10H260.366V10.76C260.193 10.8667 259.98 10.9733 259.726 11.08C259.486 11.1867 259.226 11.2733 258.946 11.34V16.42L260.126 16.14L263.346 11.34C263.08 11.2867 262.813 11.2067 262.546 11.1C262.293 10.98 262.073 10.8667 261.886 10.76V10Z" fill="white"/>
<path d="M81.2139 35.2031V48H79.5439V35.2031H81.2139ZM85.3271 35.2031V36.5918H75.4395V35.2031H85.3271ZM89.0186 47.0156L91.6641 38.4902H93.4043L89.5898 49.4678C89.502 49.7021 89.3848 49.9541 89.2383 50.2236C89.0977 50.499 88.916 50.7598 88.6934 51.0059C88.4707 51.252 88.2012 51.4512 87.8848 51.6035C87.5742 51.7617 87.2021 51.8408 86.7686 51.8408C86.6396 51.8408 86.4756 51.8232 86.2764 51.7881C86.0771 51.7529 85.9365 51.7236 85.8545 51.7002L85.8457 50.3818C85.8926 50.3877 85.9658 50.3936 86.0654 50.3994C86.1709 50.4111 86.2441 50.417 86.2852 50.417C86.6543 50.417 86.9678 50.3672 87.2256 50.2676C87.4834 50.1738 87.7002 50.0127 87.876 49.7842C88.0576 49.5615 88.2129 49.2539 88.3418 48.8613L89.0186 47.0156ZM87.0762 38.4902L89.5459 45.873L89.9678 47.5869L88.7988 48.1846L85.3008 38.4902H87.0762ZM96.498 40.3184V51.6562H94.8633V38.4902H96.3574L96.498 40.3184ZM102.905 43.166V43.3506C102.905 44.042 102.823 44.6836 102.659 45.2754C102.495 45.8613 102.255 46.3711 101.938 46.8047C101.628 47.2383 101.244 47.5752 100.787 47.8154C100.33 48.0557 99.8057 48.1758 99.2139 48.1758C98.6104 48.1758 98.0771 48.0762 97.6143 47.877C97.1514 47.6777 96.7588 47.3877 96.4365 47.0068C96.1143 46.626 95.8564 46.1689 95.6631 45.6357C95.4756 45.1025 95.3467 44.502 95.2764 43.834V42.8496C95.3467 42.1465 95.4785 41.5166 95.6719 40.96C95.8652 40.4033 96.1201 39.9287 96.4365 39.5361C96.7588 39.1377 97.1484 38.8359 97.6055 38.6309C98.0625 38.4199 98.5898 38.3145 99.1875 38.3145C99.7852 38.3145 100.315 38.4316 100.778 38.666C101.241 38.8945 101.631 39.2227 101.947 39.6504C102.264 40.0781 102.501 40.5908 102.659 41.1885C102.823 41.7803 102.905 42.4395 102.905 43.166ZM101.271 43.3506V43.166C101.271 42.6914 101.221 42.2461 101.121 41.8301C101.021 41.4082 100.866 41.0391 100.655 40.7227C100.45 40.4004 100.187 40.1484 99.8643 39.9668C99.542 39.7793 99.1582 39.6855 98.7129 39.6855C98.3027 39.6855 97.9453 39.7559 97.6406 39.8965C97.3418 40.0371 97.0869 40.2275 96.876 40.4678C96.665 40.7021 96.4922 40.9717 96.3574 41.2764C96.2285 41.5752 96.1318 41.8857 96.0674 42.208V44.4844C96.1846 44.8945 96.3486 45.2812 96.5596 45.6445C96.7705 46.002 97.0518 46.292 97.4033 46.5146C97.7549 46.7314 98.1973 46.8398 98.7305 46.8398C99.1699 46.8398 99.5479 46.749 99.8643 46.5674C100.187 46.3799 100.45 46.125 100.655 45.8027C100.866 45.4805 101.021 45.1113 101.121 44.6953C101.221 44.2734 101.271 43.8252 101.271 43.3506ZM110.587 46.374V41.4785C110.587 41.1035 110.511 40.7783 110.358 40.5029C110.212 40.2217 109.989 40.0049 109.69 39.8525C109.392 39.7002 109.022 39.624 108.583 39.624C108.173 39.624 107.812 39.6943 107.502 39.835C107.197 39.9756 106.957 40.1602 106.781 40.3887C106.611 40.6172 106.526 40.8633 106.526 41.127H104.9C104.9 40.7871 104.988 40.4502 105.164 40.1162C105.34 39.7822 105.592 39.4805 105.92 39.2109C106.254 38.9355 106.652 38.7188 107.115 38.5605C107.584 38.3965 108.105 38.3145 108.68 38.3145C109.371 38.3145 109.98 38.4316 110.508 38.666C111.041 38.9004 111.457 39.2549 111.756 39.7295C112.061 40.1982 112.213 40.7871 112.213 41.4961V45.9258C112.213 46.2422 112.239 46.5791 112.292 46.9365C112.351 47.2939 112.436 47.6016 112.547 47.8594V48H110.851C110.769 47.8125 110.704 47.5635 110.657 47.2529C110.61 46.9365 110.587 46.6436 110.587 46.374ZM110.868 42.2344L110.886 43.377H109.242C108.779 43.377 108.366 43.415 108.003 43.4912C107.64 43.5615 107.335 43.6699 107.089 43.8164C106.843 43.9629 106.655 44.1475 106.526 44.3701C106.397 44.5869 106.333 44.8418 106.333 45.1348C106.333 45.4336 106.4 45.7061 106.535 45.9521C106.67 46.1982 106.872 46.3945 107.142 46.541C107.417 46.6816 107.754 46.752 108.152 46.752C108.65 46.752 109.09 46.6465 109.471 46.4355C109.852 46.2246 110.153 45.9668 110.376 45.6621C110.604 45.3574 110.728 45.0615 110.745 44.7744L111.439 45.5566C111.398 45.8027 111.287 46.0752 111.105 46.374C110.924 46.6729 110.681 46.96 110.376 47.2354C110.077 47.5049 109.72 47.7305 109.304 47.9121C108.894 48.0879 108.431 48.1758 107.915 48.1758C107.271 48.1758 106.705 48.0498 106.219 47.7979C105.738 47.5459 105.363 47.209 105.094 46.7871C104.83 46.3594 104.698 45.8818 104.698 45.3545C104.698 44.8447 104.798 44.3965 104.997 44.0098C105.196 43.6172 105.483 43.292 105.858 43.0342C106.233 42.7705 106.685 42.5713 107.212 42.4365C107.739 42.3018 108.328 42.2344 108.979 42.2344H110.868ZM120.914 38.4902V39.835H116.52V48H114.894V38.4902H120.914ZM126.1 48.1758C125.438 48.1758 124.837 48.0645 124.298 47.8418C123.765 47.6133 123.305 47.2939 122.918 46.8838C122.537 46.4736 122.244 45.9873 122.039 45.4248C121.834 44.8623 121.731 44.2471 121.731 43.5791V43.21C121.731 42.4365 121.846 41.748 122.074 41.1445C122.303 40.5352 122.613 40.0195 123.006 39.5977C123.398 39.1758 123.844 38.8564 124.342 38.6396C124.84 38.4229 125.355 38.3145 125.889 38.3145C126.568 38.3145 127.154 38.4316 127.646 38.666C128.145 38.9004 128.552 39.2285 128.868 39.6504C129.185 40.0664 129.419 40.5586 129.571 41.127C129.724 41.6895 129.8 42.3047 129.8 42.9727V43.7021H122.698V42.375H128.174V42.252C128.15 41.8301 128.062 41.4199 127.91 41.0215C127.764 40.623 127.529 40.2949 127.207 40.0371C126.885 39.7793 126.445 39.6504 125.889 39.6504C125.52 39.6504 125.18 39.7295 124.869 39.8877C124.559 40.04 124.292 40.2686 124.069 40.5732C123.847 40.8779 123.674 41.25 123.551 41.6895C123.428 42.1289 123.366 42.6357 123.366 43.21V43.5791C123.366 44.0303 123.428 44.4551 123.551 44.8535C123.68 45.2461 123.864 45.5918 124.104 45.8906C124.351 46.1895 124.646 46.4238 124.992 46.5938C125.344 46.7637 125.742 46.8486 126.188 46.8486C126.762 46.8486 127.248 46.7314 127.646 46.4971C128.045 46.2627 128.394 45.9492 128.692 45.5566L129.677 46.3389C129.472 46.6494 129.211 46.9453 128.895 47.2266C128.578 47.5078 128.188 47.7363 127.726 47.9121C127.269 48.0879 126.727 48.1758 126.1 48.1758ZM138.149 42.6123V43.9307H133.122V42.6123H138.149ZM133.465 38.4902V48H131.839V38.4902H133.465ZM139.468 38.4902V48H137.833V38.4902H139.468ZM145.963 38.4902V48H144.328V38.4902H145.963ZM149.153 38.4902V39.8086H141.199V38.4902H149.153ZM153.855 46.8398C154.242 46.8398 154.6 46.7607 154.928 46.6025C155.256 46.4443 155.525 46.2275 155.736 45.9521C155.947 45.6709 156.067 45.3516 156.097 44.9941H157.644C157.614 45.5566 157.424 46.0811 157.072 46.5674C156.727 47.0479 156.272 47.4375 155.71 47.7363C155.147 48.0293 154.529 48.1758 153.855 48.1758C153.141 48.1758 152.517 48.0498 151.983 47.7979C151.456 47.5459 151.017 47.2002 150.665 46.7607C150.319 46.3213 150.059 45.8174 149.883 45.249C149.713 44.6748 149.628 44.0684 149.628 43.4297V43.0605C149.628 42.4219 149.713 41.8184 149.883 41.25C150.059 40.6758 150.319 40.1689 150.665 39.7295C151.017 39.29 151.456 38.9443 151.983 38.6924C152.517 38.4404 153.141 38.3145 153.855 38.3145C154.6 38.3145 155.25 38.4668 155.807 38.7715C156.363 39.0703 156.8 39.4805 157.116 40.002C157.438 40.5176 157.614 41.1035 157.644 41.7598H156.097C156.067 41.3672 155.956 41.0127 155.763 40.6963C155.575 40.3799 155.317 40.1279 154.989 39.9404C154.667 39.7471 154.289 39.6504 153.855 39.6504C153.357 39.6504 152.938 39.75 152.599 39.9492C152.265 40.1426 151.998 40.4062 151.799 40.7402C151.605 41.0684 151.465 41.4346 151.377 41.8389C151.295 42.2373 151.254 42.6445 151.254 43.0605V43.4297C151.254 43.8457 151.295 44.2559 151.377 44.6602C151.459 45.0645 151.597 45.4307 151.79 45.7588C151.989 46.0869 152.256 46.3506 152.59 46.5498C152.93 46.7432 153.352 46.8398 153.855 46.8398ZM163.348 38.4902V48H161.713V38.4902H163.348ZM166.538 38.4902V39.8086H158.584V38.4902H166.538ZM172.603 43.8164H169.482L169.465 42.5156H172.014C172.518 42.5156 172.937 42.4658 173.271 42.3662C173.61 42.2666 173.865 42.1172 174.035 41.918C174.205 41.7188 174.29 41.4727 174.29 41.1797C174.29 40.9512 174.24 40.752 174.141 40.582C174.047 40.4062 173.903 40.2627 173.71 40.1514C173.517 40.0342 173.276 39.9492 172.989 39.8965C172.708 39.8379 172.377 39.8086 171.996 39.8086H169.913V48H168.287V38.4902H171.996C172.6 38.4902 173.142 38.543 173.622 38.6484C174.108 38.7539 174.521 38.915 174.861 39.1318C175.207 39.3428 175.471 39.6123 175.652 39.9404C175.834 40.2686 175.925 40.6553 175.925 41.1006C175.925 41.3877 175.866 41.6602 175.749 41.918C175.632 42.1758 175.459 42.4043 175.23 42.6035C175.002 42.8027 174.721 42.9668 174.387 43.0957C174.053 43.2188 173.669 43.2979 173.235 43.333L172.603 43.8164ZM172.603 48H168.894L169.702 46.6816H172.603C173.054 46.6816 173.429 46.626 173.728 46.5146C174.026 46.3975 174.249 46.2334 174.396 46.0225C174.548 45.8057 174.624 45.5479 174.624 45.249C174.624 44.9502 174.548 44.6953 174.396 44.4844C174.249 44.2676 174.026 44.1035 173.728 43.9922C173.429 43.875 173.054 43.8164 172.603 43.8164H170.133L170.15 42.5156H173.235L173.824 43.0078C174.346 43.0488 174.788 43.1777 175.151 43.3945C175.515 43.6113 175.79 43.8867 175.978 44.2207C176.165 44.5488 176.259 44.9062 176.259 45.293C176.259 45.7383 176.174 46.1309 176.004 46.4707C175.84 46.8105 175.6 47.0947 175.283 47.3232C174.967 47.5459 174.583 47.7158 174.132 47.833C173.681 47.9443 173.171 48 172.603 48ZM178.008 43.3506V43.1484C178.008 42.4629 178.107 41.8271 178.307 41.2412C178.506 40.6494 178.793 40.1367 179.168 39.7031C179.543 39.2637 179.997 38.9238 180.53 38.6836C181.063 38.4375 181.661 38.3145 182.323 38.3145C182.991 38.3145 183.592 38.4375 184.125 38.6836C184.664 38.9238 185.121 39.2637 185.496 39.7031C185.877 40.1367 186.167 40.6494 186.366 41.2412C186.565 41.8271 186.665 42.4629 186.665 43.1484V43.3506C186.665 44.0361 186.565 44.6719 186.366 45.2578C186.167 45.8438 185.877 46.3564 185.496 46.7959C185.121 47.2295 184.667 47.5693 184.134 47.8154C183.606 48.0557 183.009 48.1758 182.341 48.1758C181.673 48.1758 181.072 48.0557 180.539 47.8154C180.006 47.5693 179.549 47.2295 179.168 46.7959C178.793 46.3564 178.506 45.8438 178.307 45.2578C178.107 44.6719 178.008 44.0361 178.008 43.3506ZM179.634 43.1484V43.3506C179.634 43.8252 179.689 44.2734 179.801 44.6953C179.912 45.1113 180.079 45.4805 180.302 45.8027C180.53 46.125 180.814 46.3799 181.154 46.5674C181.494 46.749 181.89 46.8398 182.341 46.8398C182.786 46.8398 183.176 46.749 183.51 46.5674C183.85 46.3799 184.131 46.125 184.354 45.8027C184.576 45.4805 184.743 45.1113 184.854 44.6953C184.972 44.2734 185.03 43.8252 185.03 43.3506V43.1484C185.03 42.6797 184.972 42.2373 184.854 41.8213C184.743 41.3994 184.573 41.0273 184.345 40.7051C184.122 40.377 183.841 40.1191 183.501 39.9316C183.167 39.7441 182.774 39.6504 182.323 39.6504C181.878 39.6504 181.485 39.7441 181.146 39.9316C180.812 40.1191 180.53 40.377 180.302 40.7051C180.079 41.0273 179.912 41.3994 179.801 41.8213C179.689 42.2373 179.634 42.6797 179.634 43.1484Z" fill="white"/>
<circle cx="30" cy="30" r="29.5" stroke="white"/>
<path d="M63.2078 10.5356L61.0769 7.42788L59.2867 5.8765L59.2701 4.60788L58.4212 4L57.3559 6.26637L55.7459 5.22236L55.1886 5.78887L55.8148 7.0446L46.5703 15.8584L32.0115 22.9515L27.644 23.9181L26.6165 24.4447L23.9038 27.9511L22.7772 31.7466L22.5127 33.8448L23.0969 35.0974L23.1586 34.6399L24.1991 30.8548L23.2062 38.4985L22.0798 41.9438L20 52.4316H21.8884L21.3175 51.4826L22.3093 46.4718L26.0545 38.9928L25.3657 41.8043L28.2919 52.4316H30.2819L29.4497 51.3724L28.0537 47.2084L27.4639 40.9549L29.6087 36.0147L30.8934 34.7613L36.845 34.77L37.8978 35.8196L35.9732 50.1469L36.05 52.4316H37.9439L37.2455 51.3825L37.506 45.9273L40.4114 35.9413L40.7681 35.9438L47.1446 52.4316H49.0591L48.0865 51.4382L46.353 46.7498L43.6351 34.9205L44.3556 28.8518L44.0028 27.1587L44.3345 25.9676L56.7052 11.9222L58.5897 11.5542L63.3487 13.2859L63.6867 11.9442L63.2078 10.5356Z" fill="white"/>
</svg>
